<svg width="674" height="573" viewBox="0 0 674 573" fill="none" xmlns="http://www.w3.org/2000/svg">
<g filter="url(#filter0_d_1_2884)">
<mask id="mask0_1_2884" style="mask-type:alpha" maskUnits="userSpaceOnUse" x="261" y="254" width="152" height="48">
<path d="M412.25 254.91H261V301.16H412.25V254.91Z" fill="#D9D9D9"/>
</mask>
<g mask="url(#mask0_1_2884)">
<path d="M267.064 301.159V291.811H279.198C281.215 291.811 282.77 291.381 283.86 290.522C284.972 289.641 285.528 288.383 285.528 286.75V286.686C285.528 285.633 285.27 284.73 284.756 283.978C284.262 283.226 283.521 282.656 282.533 282.27C281.565 281.883 280.361 281.689 278.92 281.689H267.064V273.469H278.303C280.258 273.469 281.74 273.039 282.749 272.18C283.758 271.299 284.262 270.106 284.262 268.602V268.537C284.262 267.14 283.778 266.033 282.811 265.217C281.843 264.4 280.526 263.992 278.859 263.992H267.064V254.644H282.409C285.476 254.644 288.091 255.116 290.252 256.062C292.434 256.986 294.101 258.329 295.254 260.091C296.407 261.832 296.983 263.928 296.983 266.377V266.442C296.983 268.247 296.582 269.87 295.779 271.309C294.976 272.749 293.875 273.931 292.475 274.855C291.096 275.758 289.542 276.327 287.813 276.564V276.822C289.809 276.865 291.641 277.37 293.309 278.337C294.997 279.304 296.345 280.604 297.354 282.237C298.362 283.849 298.867 285.665 298.867 287.685V287.75C298.867 290.436 298.218 292.789 296.921 294.809C295.625 296.808 293.803 298.366 291.456 299.483C289.11 300.601 286.341 301.159 283.15 301.159H267.064ZM260.518 301.159V254.644H273.609V301.159H260.518Z" fill="white"/>
<path d="M364.407 289.394V274.372H364.963L378.734 254.644H392.474L377.499 275.726H374.133L364.407 289.394ZM351.624 301.159V254.644H364.716V301.159H351.624ZM377.931 301.159L365.488 279.271L375.06 270.632L393.154 301.159H377.931Z" fill="white"/>
<path d="M323.775 330.433C319.184 330.433 315.211 329.466 311.856 327.532C308.501 325.577 305.907 322.794 304.075 319.183C302.264 315.573 301.358 311.296 301.358 306.353V306.289C301.358 301.346 302.274 297.08 304.106 293.491C305.938 289.881 308.531 287.109 311.887 285.175C315.242 283.219 319.205 282.241 323.775 282.241C328.385 282.241 332.369 283.219 335.724 285.175C339.1 287.13 341.694 289.903 343.505 293.491C345.337 297.08 346.253 301.346 346.253 306.289V306.353C346.253 311.296 345.337 315.573 343.505 319.183C341.694 322.772 339.11 325.544 335.755 327.5C332.399 329.456 328.406 330.433 323.775 330.433ZM323.775 319.28C325.668 319.28 327.294 318.753 328.653 317.7C330.012 316.648 331.062 315.154 331.802 313.22C332.544 311.286 332.914 308.997 332.914 306.353V306.289C332.914 303.624 332.533 301.336 331.772 299.423C331.031 297.489 329.97 296.006 328.591 294.974C327.233 293.921 325.627 293.395 323.775 293.395C321.963 293.395 320.368 293.911 318.989 294.942C317.63 295.974 316.57 297.456 315.808 299.391C315.067 301.303 314.697 303.603 314.697 306.289V306.353C314.697 309.018 315.067 311.318 315.808 313.252C316.57 315.186 317.63 316.679 318.989 317.733C320.347 318.764 321.943 319.28 323.775 319.28Z" fill="white"/>
<path d="M323.775 271.662C319.184 271.662 315.211 270.695 311.856 268.761C308.501 266.806 305.907 264.023 304.075 260.412C302.264 256.802 301.358 252.525 301.358 247.582V247.518C301.358 242.575 302.274 238.309 304.106 234.72C305.938 231.11 308.531 228.338 311.887 226.404C315.242 224.448 319.205 223.47 323.775 223.47C328.385 223.47 332.369 224.448 335.724 226.404C339.1 228.359 341.694 231.132 343.505 234.72C345.337 238.309 346.253 242.575 346.253 247.518V247.582C346.253 252.525 345.337 256.802 343.505 260.412C341.694 264.001 339.11 266.773 335.755 268.729C332.399 270.684 328.406 271.662 323.775 271.662ZM323.775 260.509C325.668 260.509 327.294 259.982 328.653 258.929C330.012 257.876 331.062 256.383 331.802 254.449C332.544 252.514 332.914 250.226 332.914 247.582V247.518C332.914 244.853 332.533 242.564 331.772 240.652C331.031 238.718 329.97 237.235 328.591 236.203C327.233 235.15 325.627 234.624 323.775 234.624C321.963 234.624 320.368 235.14 318.989 236.171C317.63 237.202 316.57 238.685 315.808 240.619C315.067 242.532 314.697 244.832 314.697 247.518V247.582C314.697 250.247 315.067 252.547 315.808 254.481C316.57 256.415 317.63 257.908 318.989 258.961C320.347 259.993 321.943 260.509 323.775 260.509Z" fill="white"/>
</g>
<path d="M399.522 301.16V266.509H412.391V301.16H399.522ZM405.957 263.401C404.157 263.401 402.64 262.794 401.406 261.581C400.192 260.367 399.585 258.934 399.585 257.281C399.585 255.607 400.192 254.173 401.406 252.981C402.64 251.767 404.157 251.16 405.957 251.16C407.756 251.16 409.263 251.767 410.477 252.981C411.711 254.173 412.328 255.607 412.328 257.281C412.328 258.934 411.711 260.367 410.477 261.581C409.263 262.794 407.756 263.401 405.957 263.401Z" fill="white"/>
</g>
<defs>
<filter id="filter0_d_1_2884" x="0.0449829" y="0.643301" width="673.301" height="571.91" filterUnits="userSpaceOnUse" color-interpolation-filters="sRGB">
<feFlood flood-opacity="0" result="BackgroundImageFix"/>
<feColorMatrix in="SourceAlpha" type="matrix" values="0 0 0 0 0 0 0 0 0 0 0 0 0 0 0 0 0 0 127 0" result="hardAlpha"/>
<feOffset dy="10.4382"/>
<feGaussianBlur stdDeviation="130.478"/>
<feComposite in2="hardAlpha" operator="out"/>
<feColorMatrix type="matrix" values="0 0 0 0 0.600567 0 0 0 0 0.670833 0 0 0 0 0.164913 0 0 0 0.12 0"/>
<feBlend mode="normal" in2="BackgroundImageFix" result="effect1_dropShadow_1_2884"/>
<feBlend mode="normal" in="SourceGraphic" in2="effect1_dropShadow_1_2884" result="shape"/>
</filter>
</defs>
</svg>
