<svg width="1440" height="665" viewBox="0 0 1440 665" fill="none" xmlns="http://www.w3.org/2000/svg">
<mask id="mask0_1_2941" style="mask-type:alpha" maskUnits="userSpaceOnUse" x="0" y="0" width="1440" height="665">
<rect width="1440" height="665" fill="#D9D9D9"/>
</mask>
<g mask="url(#mask0_1_2941)">
<path d="M1443.89 205.166L1461.7 226.528L1479.03 204.78L1480.89 232.53L1507.69 225.126L1492.88 248.664L1518.92 258.431L1493.1 268.767L1508.43 291.975L1481.46 285.16L1480.22 312.945L1462.41 291.582L1445.08 313.33L1443.23 285.58L1416.42 292.985L1431.23 269.446L1405.19 259.679L1431.01 249.343L1415.68 226.135L1442.65 232.95L1443.89 205.166Z" fill="#CFFF48"/>
<path fill-rule="evenodd" clip-rule="evenodd" d="M36.471 194.499L7.34501 318.147L74.1812 210.119C76.2521 206.773 80.9003 206.233 83.6819 209.015L128.985 254.318C131.767 257.1 131.227 261.748 127.881 263.818L19.853 330.656L143.502 301.529C147.331 300.627 151 303.532 151 307.467V371.534C151 375.469 147.331 378.374 143.502 377.471L19.853 348.345L127.881 415.183C131.227 417.252 131.767 421.9 128.985 424.683L83.6819 469.985C80.9003 472.767 76.2521 472.227 74.1812 468.881L7.34501 360.853L36.471 484.502C37.3738 488.331 34.4671 492 30.5341 492H-33.5337C-37.4679 492 -40.3732 488.331 -39.4711 484.502L-10.3445 360.853L-77.1818 468.881C-79.2517 472.227 -83.9006 472.767 -86.6825 469.985L-131.985 424.682C-134.767 421.9 -134.227 417.252 -130.881 415.181L-22.8538 348.345L-146.501 377.471C-150.331 378.374 -154 375.469 -154 371.534V307.466C-154 303.532 -150.331 300.627 -146.501 301.529L-22.853 330.655L-130.881 263.819C-134.227 261.748 -134.767 257.1 -131.985 254.318L-86.6825 209.015C-83.9006 206.233 -79.2517 206.773 -77.1818 210.119L-10.3445 318.147L-39.4711 194.499C-40.3732 190.669 -37.4679 187 -33.5337 187L30.5341 187C34.4686 187 37.3738 190.669 36.471 194.499ZM-1.5 356.929C8.1258 356.929 15.9292 349.126 15.9292 339.5C15.9292 329.875 8.1258 322.071 -1.5 322.071C-11.1255 322.071 -18.9286 329.875 -18.9286 339.5C-18.9286 349.126 -11.1255 356.929 -1.5 356.929Z" fill="#E9B8FF"/>
</g>
</svg>
