<svg width="23" height="24" viewBox="0 0 23 24" fill="none" xmlns="http://www.w3.org/2000/svg">
<path d="M22.1968 17.1339C22.5989 16.7125 22.8629 16.1658 22.9631 15.5919C23.1463 14.5426 22.7384 13.3925 19.647 12.9729C18.2203 12.7792 15.2773 12.3138 14.9189 12.0014C14.76 11.8902 14.5853 11.5556 15.1572 11.106C15.7292 10.6564 17.9375 10.6075 18.9702 10.6393C20.5431 10.5218 23.5077 9.73626 22.7832 7.53405C22.0587 5.33185 20.5621 5.3528 19.9044 5.63856C18.967 6.12116 16.8597 7.37402 15.9294 8.52465C15.753 8.74274 15.5771 8.9166 15.4054 9.0539C14.4766 9.79678 13.6886 8.77488 14.316 7.76444C14.5263 7.42579 14.8012 7.02753 15.1572 6.56248C16.9875 4.17167 18.0742 2.99056 17.4641 1.58084C17.189 0.945184 16.6204 0.578238 16.061 0.37903C15.331 0.119081 14.4374 0.011725 13.8444 0.510371C13.4445 0.84655 13.045 1.46099 12.7932 2.52382C12.6279 3.7843 12.2861 6.45576 12.2403 7.05775C12.1831 7.81024 11.8685 8.35317 11.6874 8.38174C11.5063 8.41032 10.7437 8.69607 10.5626 6.78152C10.3815 4.86697 10.2289 0.847368 8.75141 0.390162C7.27388 -0.0670445 4.92886 1.21876 5.09802 2.1605C5.15023 2.45116 5.17472 2.62082 5.2036 2.75796C5.31251 3.27511 5.64028 3.71487 5.95136 4.14212C6.89601 5.43953 8.28491 7.2122 8.4559 7.44828C8.75849 7.86605 9.36149 8.85797 9.19944 9.13423C9.03738 9.41049 8.90393 10.2201 5.82494 7.64831C4.79705 6.78974 3.98572 6.26513 3.36729 5.95888C2.41445 5.48705 1.18165 5.66758 0.515555 6.49631C0.293492 6.7726 0.116596 7.1194 0.0362681 7.54606C-0.16066 8.59206 0.463725 9.64016 1.44037 10.0634C2.16211 10.3762 3.18463 10.6151 4.54759 10.5725C5.74868 10.6868 8.15087 11.0526 8.15087 11.6012C8.15087 12.1499 7.2993 12.4013 6.87351 12.4585C5.73426 12.5391 3.88948 12.7332 2.49312 13.0341C1.15926 13.3214 -0.210786 14.3602 0.0358299 15.7021C0.107577 16.0925 0.285147 16.5264 0.620215 16.9925C2.03102 18.9546 4.4332 17.1258 6.20624 15.4684C6.62575 15.0763 6.99779 14.7711 7.32048 14.5358C8.19259 13.8998 9.55487 14.2741 8.95616 15.1722C8.94547 15.1882 8.93442 15.2044 8.923 15.2208C8.15087 16.3257 4.99562 19.7357 5.30066 20.7549C5.48858 21.3828 5.58244 22.2528 6.35115 22.7193C7.73804 23.5608 9.55977 22.4538 10.0739 20.9152C10.3263 20.16 10.4845 19.204 10.4196 18.0402C10.5022 17.056 10.7895 15.0703 11.2775 15.0017V15.0017C11.939 14.9088 12.1107 15.8036 12.1856 16.4673C12.3991 18.3597 12.7573 21.0544 13.0506 21.6979C13.3568 22.3698 14.2722 23.4413 15.5889 23.0919C17.1156 22.6867 17.7619 20.8011 17.0881 19.3725C16.8167 18.797 16.4024 18.1642 15.7864 17.5163C13.6034 15.2208 13.6225 14.6969 13.7083 14.173C13.7941 13.6491 14.509 13.7825 16.2821 15.2208C17.8947 16.529 20.3827 19.0349 22.1968 17.1339Z" fill="#2F2F2F"/>
</svg>
